<svg version="1.1" id="Layer_1" xmlns="http://www.w3.org/2000/svg" xmlns:xlink="http://www.w3.org/1999/xlink" x="0px" y="0px"
	 width="100%" viewBox="0 0 512 512" enable-background="new 0 0 512 512" xml:space="preserve">
<path fill="#E96C1D" opacity="1.000000" stroke="none" 
	d="
M359.000000,513.000000 
	C239.362411,513.000000 120.224808,513.000000 1.043608,513.000000 
	C1.043608,342.404053 1.043608,171.808090 1.043608,1.106062 
	C171.554260,1.106062 342.108612,1.106062 512.831482,1.106062 
	C512.831482,171.666534 512.831482,342.333252 512.831482,513.000000 
	C461.808014,513.000000 410.654022,513.000000 359.000000,513.000000 
M280.254791,433.484100 
	C290.237854,431.681000 300.239075,429.972351 310.200043,428.054565 
	C329.099426,424.415802 346.420593,417.158417 361.676361,405.253265 
	C394.693695,379.487457 412.586182,345.140961 417.663391,304.121582 
	C422.605621,264.192444 422.340454,224.362534 411.382721,185.179611 
	C404.923492,162.082474 394.275574,141.240326 378.191010,123.332718 
	C351.177582,93.257477 315.722382,80.776451 276.993378,79.688980 
	C217.057343,78.006042 157.042480,79.128868 97.061035,79.077217 
	C96.091270,79.076378 95.121338,79.270172 93.818306,79.408508 
	C93.723869,80.990547 93.560600,82.451401 93.560356,83.912292 
	C93.546326,166.054459 93.542961,248.196609 93.549889,330.338776 
	C93.550415,336.541901 93.716827,336.741608 100.093895,336.673737 
	C116.082321,336.503510 132.072632,336.365967 148.056076,335.969086 
	C152.329712,335.862946 154.595093,336.758789 154.383728,341.618103 
	C154.123459,347.601471 154.173996,353.623322 154.541031,359.600861 
	C154.820862,364.157776 152.918137,365.208282 148.713806,365.214233 
	C132.059052,365.237915 115.404831,365.699371 98.750267,365.707428 
	C94.876015,365.709320 93.485062,366.790955 93.417900,370.728485 
	C93.338142,375.405060 94.806732,377.174683 99.754524,377.030853 
	C116.234482,376.551849 132.728882,376.590851 149.213394,376.231720 
	C152.856827,376.152313 154.334137,377.294342 154.270966,381.003540 
	C154.166107,387.162292 154.147217,393.341766 154.543137,399.483459 
	C154.842621,404.129089 153.138184,405.489197 148.569275,405.481903 
	C131.747818,405.455048 114.924278,405.749359 98.106407,406.135986 
	C96.609383,406.170380 93.898811,407.698853 93.864052,408.613678 
	C93.536995,417.220917 93.669739,425.845642 93.669739,434.653412 
	C95.462456,434.768738 96.765526,434.925568 98.068626,434.925812 
	C153.218857,434.936035 208.369141,434.966187 263.519226,434.876099 
	C268.814758,434.867432 274.109009,434.100311 280.254791,433.484100 
z"/>
<path fill="#F9F8F7" opacity="1.000000" stroke="none" 
	d="
M279.829346,433.584686 
	C274.109009,434.100311 268.814758,434.867432 263.519226,434.876099 
	C208.369141,434.966187 153.218857,434.936035 98.068626,434.925812 
	C96.765526,434.925568 95.462456,434.768738 93.669739,434.653412 
	C93.669739,425.845642 93.536995,417.220917 93.864052,408.613678 
	C93.898811,407.698853 96.609383,406.170380 98.106407,406.135986 
	C114.924278,405.749359 131.747818,405.455048 148.569275,405.481903 
	C153.138184,405.489197 154.842621,404.129089 154.543137,399.483459 
	C154.147217,393.341766 154.166107,387.162292 154.270966,381.003540 
	C154.334137,377.294342 152.856827,376.152313 149.213394,376.231720 
	C132.728882,376.590851 116.234482,376.551849 99.754524,377.030853 
	C94.806732,377.174683 93.338142,375.405060 93.417900,370.728485 
	C93.485062,366.790955 94.876015,365.709320 98.750267,365.707428 
	C115.404831,365.699371 132.059052,365.237915 148.713806,365.214233 
	C152.918137,365.208282 154.820862,364.157776 154.541031,359.600861 
	C154.173996,353.623322 154.123459,347.601471 154.383728,341.618103 
	C154.595093,336.758789 152.329712,335.862946 148.056076,335.969086 
	C132.072632,336.365967 116.082321,336.503510 100.093895,336.673737 
	C93.716827,336.741608 93.550415,336.541901 93.549889,330.338776 
	C93.542961,248.196609 93.546326,166.054459 93.560356,83.912292 
	C93.560600,82.451401 93.723869,80.990547 93.818306,79.408508 
	C95.121338,79.270172 96.091270,79.076378 97.061035,79.077217 
	C157.042480,79.128868 217.057343,78.006042 276.993378,79.688980 
	C315.722382,80.776451 351.177582,93.257477 378.191010,123.332718 
	C394.275574,141.240326 404.923492,162.082474 411.382721,185.179611 
	C422.340454,224.362534 422.605621,264.192444 417.663391,304.121582 
	C412.586182,345.140961 394.693695,379.487457 361.676361,405.253265 
	C346.420593,417.158417 329.099426,424.415802 310.200043,428.054565 
	C300.239075,429.972351 290.237854,431.681000 279.829346,433.584686 
M181.391525,156.323059 
	C176.058273,161.650055 169.119781,165.396149 165.966309,172.907883 
	C165.184525,174.770096 162.499710,175.845306 160.665039,177.250107 
	C158.957443,178.557632 156.924301,179.567307 155.543854,181.151855 
	C150.628265,186.794281 145.756699,192.495316 141.253784,198.464813 
	C139.887909,200.275543 138.942215,203.135132 139.231155,205.326096 
	C140.126740,212.117264 138.672348,218.086548 135.135696,223.864044 
	C134.242828,225.322647 134.009628,228.010513 134.750854,229.496033 
	C137.451920,234.909271 140.709091,240.043930 143.719803,245.304672 
	C144.368027,246.437332 145.063614,247.604691 145.392776,248.847366 
	C146.776321,254.070312 158.437317,264.920593 163.721375,265.708008 
	C164.694489,265.853058 165.720932,265.847839 166.698441,265.722473 
	C173.223465,264.885651 179.746796,264.031647 186.258286,263.096863 
	C187.551620,262.911224 188.827774,262.442047 190.048737,261.947754 
	C193.277176,260.640808 196.422745,259.116364 199.690308,257.921967 
	C204.211411,256.269318 207.220612,257.469666 208.737030,261.928955 
	C209.862137,265.237488 211.976501,265.675659 214.902435,265.503296 
	C222.095245,265.079620 228.105515,273.082855 224.232498,278.946228 
	C219.849533,285.581665 222.418961,289.569275 226.998428,293.990967 
	C231.296875,298.141296 235.525650,302.287689 235.819489,309.021393 
	C235.967880,312.422028 236.823227,316.046234 238.347961,319.070770 
	C240.454926,323.250336 239.421722,326.066376 236.626724,329.368317 
	C230.746811,336.314758 230.971741,343.799286 236.508728,350.744751 
	C240.261658,355.452332 243.903107,360.305176 243.073563,366.910675 
	C242.373917,372.481720 244.429993,377.077881 248.273834,380.891876 
	C253.307556,385.886383 256.916809,391.175629 255.862457,398.926880 
	C255.321777,402.901825 258.915833,405.597717 262.151184,404.574371 
	C269.742676,402.173157 277.618774,400.363098 284.802826,397.059418 
	C294.113617,392.777710 302.185211,386.763000 302.753510,374.969574 
	C302.799835,374.007874 303.652344,372.538727 304.468201,372.245453 
	C312.050385,369.519806 312.555634,363.637482 312.186279,356.832184 
	C312.064697,354.591614 313.525177,351.761261 315.155121,350.052032 
	C317.393250,347.705017 320.462982,346.141418 323.208282,344.289368 
	C332.205109,338.219971 335.551819,326.464600 330.723633,316.626556 
	C326.212555,307.434692 327.488831,299.258118 334.221771,291.772247 
	C339.332367,286.090149 344.195068,280.140045 349.711395,274.878906 
	C357.104950,267.827362 362.190948,259.644806 364.764496,249.781326 
	C366.123474,244.573059 363.026672,240.825897 357.713959,241.608078 
	C354.751282,242.044250 351.797333,242.816559 348.832764,242.850235 
	C347.266602,242.868011 344.593353,241.947021 344.288116,240.903473 
	C342.172211,233.669281 335.293121,231.520187 330.459473,227.222626 
	C329.011383,225.935135 327.237213,224.815552 326.272034,223.220047 
	C322.982178,217.781662 319.937866,212.191910 316.890930,206.610214 
	C313.113464,199.690338 309.714508,192.544556 305.601532,185.833771 
	C302.779480,181.229248 299.076416,177.152466 295.613953,172.966522 
	C295.124969,172.375320 293.696381,172.173203 292.818146,172.353439 
	C285.809998,173.791702 279.499084,171.312653 273.226471,168.890808 
	C268.062866,166.897156 264.428101,167.943726 261.800232,172.523193 
	C261.343658,173.318848 260.349945,174.522110 259.791901,174.427734 
	C256.116364,173.806366 251.495941,173.982605 249.082306,171.799561 
	C245.363419,168.435959 241.491638,167.045273 236.869568,166.070923 
	C233.425385,165.344849 229.282639,164.149017 229.463440,159.391708 
	C229.628754,155.041916 227.022354,153.482300 223.702728,153.449524 
	C216.906601,153.382446 209.800385,152.829163 203.385162,154.561813 
	C196.192963,156.504303 189.405563,158.089188 181.391525,156.323059 
M363.581146,328.051941 
	C362.396881,329.306458 361.256104,330.605713 360.020172,331.807068 
	C356.336395,335.387695 353.159973,340.043976 348.764832,342.192627 
	C343.764252,344.637268 342.236176,344.930084 343.379486,350.688110 
	C344.041595,354.022614 343.613586,356.625885 341.377350,359.262726 
	C338.687775,362.434021 338.646851,372.286530 340.987579,374.039124 
	C344.175873,376.426453 351.100220,373.366760 353.887054,367.683960 
	C357.227905,360.871521 359.947784,353.755280 362.965424,346.783081 
	C363.549316,345.433990 364.074554,343.995056 364.955322,342.850220 
	C368.408112,338.362030 368.236298,333.037231 363.581146,328.051941 
z"/>
<path fill="#E96E1E" opacity="1.000000" stroke="none" 
	d="
M181.759888,156.159302 
	C189.405563,158.089188 196.192963,156.504303 203.385162,154.561813 
	C209.800385,152.829163 216.906601,153.382446 223.702728,153.449524 
	C227.022354,153.482300 229.628754,155.041916 229.463440,159.391708 
	C229.282639,164.149017 233.425385,165.344849 236.869568,166.070923 
	C241.491638,167.045273 245.363419,168.435959 249.082306,171.799561 
	C251.495941,173.982605 256.116364,173.806366 259.791901,174.427734 
	C260.349945,174.522110 261.343658,173.318848 261.800232,172.523193 
	C264.428101,167.943726 268.062866,166.897156 273.226471,168.890808 
	C279.499084,171.312653 285.809998,173.791702 292.818146,172.353439 
	C293.696381,172.173203 295.124969,172.375320 295.613953,172.966522 
	C299.076416,177.152466 302.779480,181.229248 305.601532,185.833771 
	C309.714508,192.544556 313.113464,199.690338 316.890930,206.610214 
	C319.937866,212.191910 322.982178,217.781662 326.272034,223.220047 
	C327.237213,224.815552 329.011383,225.935135 330.459473,227.222626 
	C335.293121,231.520187 342.172211,233.669281 344.288116,240.903473 
	C344.593353,241.947021 347.266602,242.868011 348.832764,242.850235 
	C351.797333,242.816559 354.751282,242.044250 357.713959,241.608078 
	C363.026672,240.825897 366.123474,244.573059 364.764496,249.781326 
	C362.190948,259.644806 357.104950,267.827362 349.711395,274.878906 
	C344.195068,280.140045 339.332367,286.090149 334.221771,291.772247 
	C327.488831,299.258118 326.212555,307.434692 330.723633,316.626556 
	C335.551819,326.464600 332.205109,338.219971 323.208282,344.289368 
	C320.462982,346.141418 317.393250,347.705017 315.155121,350.052032 
	C313.525177,351.761261 312.064697,354.591614 312.186279,356.832184 
	C312.555634,363.637482 312.050385,369.519806 304.468201,372.245453 
	C303.652344,372.538727 302.799835,374.007874 302.753510,374.969574 
	C302.185211,386.763000 294.113617,392.777710 284.802826,397.059418 
	C277.618774,400.363098 269.742676,402.173157 262.151184,404.574371 
	C258.915833,405.597717 255.321777,402.901825 255.862457,398.926880 
	C256.916809,391.175629 253.307556,385.886383 248.273834,380.891876 
	C244.429993,377.077881 242.373917,372.481720 243.073563,366.910675 
	C243.903107,360.305176 240.261658,355.452332 236.508728,350.744751 
	C230.971741,343.799286 230.746811,336.314758 236.626724,329.368317 
	C239.421722,326.066376 240.454926,323.250336 238.347961,319.070770 
	C236.823227,316.046234 235.967880,312.422028 235.819489,309.021393 
	C235.525650,302.287689 231.296875,298.141296 226.998428,293.990967 
	C222.418961,289.569275 219.849533,285.581665 224.232498,278.946228 
	C228.105515,273.082855 222.095245,265.079620 214.902435,265.503296 
	C211.976501,265.675659 209.862137,265.237488 208.737030,261.928955 
	C207.220612,257.469666 204.211411,256.269318 199.690308,257.921967 
	C196.422745,259.116364 193.277176,260.640808 190.048737,261.947754 
	C188.827774,262.442047 187.551620,262.911224 186.258286,263.096863 
	C179.746796,264.031647 173.223465,264.885651 166.698441,265.722473 
	C165.720932,265.847839 164.694489,265.853058 163.721375,265.708008 
	C158.437317,264.920593 146.776321,254.070312 145.392776,248.847366 
	C145.063614,247.604691 144.368027,246.437332 143.719803,245.304672 
	C140.709091,240.043930 137.451920,234.909271 134.750854,229.496033 
	C134.009628,228.010513 134.242828,225.322647 135.135696,223.864044 
	C138.672348,218.086548 140.126740,212.117264 139.231155,205.326096 
	C138.942215,203.135132 139.887909,200.275543 141.253784,198.464813 
	C145.756699,192.495316 150.628265,186.794281 155.543854,181.151855 
	C156.924301,179.567307 158.957443,178.557632 160.665039,177.250107 
	C162.499710,175.845306 165.184525,174.770096 165.966309,172.907883 
	C169.119781,165.396149 176.058273,161.650055 181.759888,156.159302 
z"/>
<path fill="#E9762B" opacity="1.000000" stroke="none" 
	d="
M363.948730,328.085419 
	C368.236298,333.037231 368.408112,338.362030 364.955322,342.850220 
	C364.074554,343.995056 363.549316,345.433990 362.965424,346.783081 
	C359.947784,353.755280 357.227905,360.871521 353.887054,367.683960 
	C351.100220,373.366760 344.175873,376.426453 340.987579,374.039124 
	C338.646851,372.286530 338.687775,362.434021 341.377350,359.262726 
	C343.613586,356.625885 344.041595,354.022614 343.379486,350.688110 
	C342.236176,344.930084 343.764252,344.637268 348.764832,342.192627 
	C353.159973,340.043976 356.336395,335.387695 360.020172,331.807068 
	C361.256104,330.605713 362.396881,329.306458 363.948730,328.085419 
z"/>
</svg>